<?xml version="1.0" standalone="no"?>
<!DOCTYPE svg PUBLIC "-//W3C//DTD SVG 20010904//EN"
 "http://www.w3.org/TR/2001/REC-SVG-20010904/DTD/svg10.dtd">
<svg version="1.0" xmlns="http://www.w3.org/2000/svg"
 width="100.000000pt" height="100.000000pt" viewBox="0 0 100.000000 100.000000"
 preserveAspectRatio="xMidYMid meet">
<metadata>
Created by potrace 1.14, written by Peter Selinger 2001-2017
</metadata>
<g transform="translate(0.000000,100.000000) scale(0.100000,-0.100000)"
fill="#000000" stroke="none">
<path d="M323 781 c-74 -12 -123 -78 -123 -163 1 -37 7 -49 44 -87 39 -40 49
-45 100 -49 l56 -4 0 -49 c0 -55 -2 -56 -75 -38 -44 11 -114 73 -116 102 -1
17 -17 -24 -18 -45 -1 -10 5 -18 13 -18 7 0 25 -15 39 -33 36 -47 80 -57 259
-57 153 0 154 0 200 29 40 25 68 64 56 76 -2 2 -22 -9 -46 -25 -35 -23 -57
-29 -132 -35 -113 -9 -125 -2 -116 69 6 57 14 68 30 42 35 -58 41 -62 77 -44
19 10 50 20 70 23 46 7 116 66 127 109 15 51 -1 122 -33 156 -29 30 -79 50
-125 50 l-25 0 22 -18 c20 -16 21 -19 8 -49 -16 -36 -88 -93 -119 -93 -30 0
-79 33 -110 73 -31 40 -31 45 -9 69 18 20 17 20 -54 9z"/>
</g>
</svg>
